# xmcd CD database file
#
# Track frame offsets:
#	193
#	11610
#	22255
#	39908
#	55935
#	83453
#	97363
#	149005
#	169518
#	182395
#	192055
#	212255
#	236185
#	258675
#	270760
#	283783
#
# Disc length: 4538 seconds
#
# Revision: 0
# Processed by: cddbd v1.4PL0 Copyright (c) Steve Scherf et al.
# Submitted via: NeoAudio 9.9.9
#
DISCID=da11b810
DTITLE=BLUES PROJECT - Best of Yesteryear
DYEAR=1990
DGENRE=Blues
TTITLE0=When there's smoke, there's fire (Live)
TTITLE1=I want to be your driver
TTITLE2=Endless sleep
TTITLE3=Fly away
TTITLE4=The Flute thing
TTITLE5=Catch the Wind (Live)
TTITLE6=Two Trains running
TTITLE7=If you got to make a fool of someone
TTITLE8=No time like the right Time (Live)
TTITLE9=Niertears Hornpipe
TTITLE10=I can't keep grom cryin' sometimes (Live)
TTITLE11=Wake me, shake me (Live)
TTITLE12=Steve's Song
TTITLE13=Cheryl's going home
TTITLE14=Violets od dawn (Live)
TTITLE15=Dakota Recollection
EXTD=YEAR: 1990
EXTT0=
EXTT1=
EXTT2=
EXTT3=
EXTT4=
EXTT5=
EXTT6=
EXTT7=
EXTT8=
EXTT9=
EXTT10=
EXTT11=
EXTT12=
EXTT13=
EXTT14=
EXTT15=
PLAYORDER=
